# AST/ASF file generated using VICON BodyLanguage
# -----------------------------------------------
:version 1.10
:name VICON
:units
  mass 1.0
  length 0.45
  angle deg
:documentation
   .ast/.asf automatically generated from VICON data using
   VICON BodyBuilder and BodyLanguage model FoxedUp or BRILLIANT.MOD
:root
   order TX TY TZ RX RY RZ
   axis XYZ
   position 0 0 0  
   orientation 0 0 0 
:bonedata
  begin
     id 1 
     name lhipjoint
     direction 0.63403 -0.759788 0.143974 
     length 2.51904 
     axis 0 0 0  XYZ
  end
  begin
     id 2 
     name lfemur
     direction 0.34202 -0.939693 0  
     length 7.42313  
     axis 0 0 20  XYZ
    dof rx ry rz
    limits (-160.0 20.0)
           (-70.0 70.0)
           (-60.0 70.0)
  end
  begin
     id 3 
     name ltibia
     direction 0.34202 -0.939693 0   
     length 8.10141   
     axis 0 0 20   XYZ
    dof rx
    limits (-10.0 170.0)
  end
  begin
     id 4 
     name lfoot
     direction 0.0927455 -0.254816 0.962532   
     length 2.14078   
     axis -90 7.62852e-016 20   XYZ
    dof rx rz
    limits (-45.0 90.0)
           (-70.0 20.0)
  end
  begin
     id 5 
     name ltoes
     direction 1.53556e-011 -4.21949e-011 1   
     length 1.07182   
     axis -90 7.62852e-016 20   XYZ
    dof rx
    limits (-90.0 20.0)
  end
  begin
     id 6 
     name rhipjoint
     direction -0.659892 -0.738223 0.139888   
     length 2.59263  
     axis 0 0 0  XYZ 
  end
  begin
     id 7 
     name rfemur
     direction -0.34202 -0.939693 0   
     length 7.58575   
     axis 0 0 -20   XYZ
    dof rx ry rz
    limits (-160.0 20.0)
           (-70.0 70.0)
           (-70.0 60.0)
  end
  begin
     id 8 
     name rtibia
     direction -0.34202 -0.939693 0   
     length 8.19358   
     axis 0 0 -20   XYZ
    dof rx
    limits (-10.0 170.0)
 end
 begin
     id 9 
     name rfoot
     direction -0.0856543 -0.235333 0.968133   
     length 2.13415  
     axis -90 -7.62852e-016 -20   XYZ
    dof rx rz
    limits (-45.0 90.0)
           (-20.0 70.0)
  end
  begin
     id 10 
     name rtoes
     direction -1.53551e-011 -4.21811e-011 1   
     length 1.07055   
     axis -90 -7.62852e-016 -20   XYZ
    dof rx
    limits (-90.0 20.0)
  end
  begin
     id 11 
     name lowerback
     direction 0.025219 0.998394 -0.0507326   
     length 1.91844   
     axis 0 0 0   XYZ
    dof rx ry rz
    limits (-20.0 45.0)
           (-30.0 30.0)
           (-30.0 30.0)
  end
  begin
     id 12 
     name upperback
     direction 0.0213103 0.99967 -0.0143101   
     length 1.92246   
     axis 0 0 0   XYZ
    dof rx ry rz
    limits (-20.0 45.0)
           (-30.0 30.0)
           (-30.0 30.0)
  end
  begin
     id 13 
     name thorax
     direction 0.00920974 0.99991 0.00971518   
     length 1.92239   
     axis 0 0 0   XYZ
    dof rx ry rz
    limits (-20.0 45.0)
           (-30.0 30.0)
           (-30.0 30.0)
  end
  begin
     id 14 
     name lowerneck
     direction 0.0598257 0.997249 0.0437612   
     length 3.13679   
     axis 0 0 0   XYZ
    dof rx ry rz
    limits (-20.0 45.0)
           (-30.0 30.0)
           (-30.0 30.0)
  end
  begin
     id 15 
     name upperneck
     direction -0.035342 0.999338 0.00863891   
     length 3.16283   
     axis 0 0 0   XYZ
    dof rx ry rz
    limits (-20.0 45.0)
           (-30.0 30.0)
           (-30.0 30.0)
  end
  begin
     id 16
     name head
     direction 0.37144 0.811566 0.450991  
     length 1.2838  
     axis 0 0 0   XYZ
    dof rx ry rz
    limits (-20.0 45.0)
           (-30.0 30.0)
           (-30.0 30.0)
  end
  begin
     id 17 
     name lclavicle
     direction 0.961094 0.274654 -0.0293862  
     length 3.63466  
     axis 0 0 0   XYZ
    dof ry rz
    limits (-20.0 10.0)
           (0.0 20.0)
  end
  begin
     id 18 
     name lhumerus
     direction 1 -4.48963e-011 1.10303e-027   
     length 5.12842   
     axis 180 -30 -90   XYZ
    dof rx ry rz
    limits (-60.0 90.0)
           (-90.0 90.0)
           (-90.0 90.0)
  end
  begin
     id 19
     name lradius
     direction 1 -4.48968e-011 4.13199e-027   
     length 3.47396   
     axis 180 -30 -90   XYZ
    dof rx
    limits (-10.0 170.0)
  end
  begin
     id 20
     name lwrist
     direction 1 -4.48948e-011 9.12708e-027   
     length 1.73698   
     axis -6.84618e-015 90 90   XYZ
    dof ry
    limits (-180.0 0.0)
 end
  begin
     id 21 
     name lhand
     direction 1 -4.49057e-011 1.82749e-026   
     length 0.728607   
     axis -1.16502e-014 90 90   XYZ
    dof rx rz
    limits (-90.0 90.0)
           (-45.0 45.0)
  end
  begin
     id 22 
     name lfingers
     direction 1 -4.48912e-011 3.64949e-026   
     length 0.587422   
     axis -2.33008e-014 90 90   XYZ
    dof rx
    limits (0.0 90.0)
  end
  begin
     id 23
     name lthumb
     direction 0.707107 -6.34995e-011 0.707107   
     length 0.843424   
     axis -90 45 5.69224e-014   XYZ
    dof rx rz
    limits (-45.0 45.0)
           (-45.0 45.0)
  end
  begin
     id 24 
     name rclavicle
     direction -0.90514 0.421881 -0.0523369   
     length 3.57139  
     axis 0 0 0   XYZ 
    dof ry rz
    limits (-10.0 20.0)
           (-20.0 0.0)
  end
  begin
     id 25 
     name rhumerus
     direction -1 -4.48954e-011 -1.76662e-027  
     length 5.48477   
     axis 180 30 90   XYZ
    dof rx ry rz
    limits (-90.0 60.0)
           (-90.0 90.0)
           (-90.0 90.0)
  end
  begin
     id 26 
     name rradius
     direction -1 -4.48982e-011 1.26841e-027   
     length 3.47856   
     axis 180 30 90   XYZ
    dof rx
    limits (-10.0 170.0)
  end
  begin
     id 27 
     name rwrist
     direction -1 -4.49037e-011 9.13554e-027   
     length 1.73928   
     axis -6.84618e-015 -90 -90   XYZ
    dof ry
    limits (-180.0 0.0)
  end
  begin
     id 28
     name rhand
     direction -1 -4.48871e-011 1.82397e-026   
     length 0.709974   
     axis -1.16502e-014 -90 -90   XYZ
    dof rx rz
    limits (-90.0 90.0)
           (-45.0 45.0)
  end
  begin
     id 29
     name rfingers
     direction -1 -4.48994e-011 3.65258e-026   
     length 0.572399   
     axis -2.33008e-014 -90 -90   XYZ
    dof rx
    limits (0.0 90.0)
  end
  begin
     id 30
     name rthumb
     direction -0.707107 -6.34861e-011 0.707107   
     length 0.821855   
     axis -90 -45 -5.69224e-014   XYZ
    dof rx rz
    limits (-45.0 45.0)
           (-45.0 45.0)
  end
:hierarchy
  begin
    root lhipjoint rhipjoint lowerback
    lhipjoint lfemur
    lfemur ltibia
    ltibia lfoot
    lfoot ltoes
    rhipjoint rfemur
    rfemur rtibia
    rtibia rfoot
    rfoot rtoes
    lowerback upperback
    upperback thorax
    thorax lowerneck lclavicle rclavicle
    lowerneck upperneck
    upperneck head
    lclavicle lhumerus
    lhumerus lradius
    lradius lwrist
    lwrist lhand lthumb
    lhand lfingers
    rclavicle rhumerus
    rhumerus rradius
    rradius rwrist
    rwrist rhand rthumb
    rhand rfingers
  end

#!OML:ASF F:\VICON\USERDATA\INSTALL\Justin1\Justin1.ASF
:FULLY-SPECIFIED
:DEGREES
1
root 0.0665758 18.2526 -4.00271 5.10138 4.52389 -3.45892
lowerback 2.5682 -2.67795 3.33255
upperback -1.91776 -3.34104 3.07384
thorax -3.42399 -1.70411 1.48842
lowerneck -9.41905 -12.1069 -10.2286
upperneck 13.379 -14.8688 0.0609474
head 6.38027 -7.71265 0.289998
rclavicle -3.1085e-014 5.96354e-015
rhumerus -32.9037 -10.2731 -72.4436
rradius 28.8568
rwrist 1.29175
rhand -19.0172 19.4196
rfingers 7.12502
rthumb 7.28851 -10.4349
lclavicle -3.1085e-014 5.96354e-015
lhumerus -41.3874 21.8527 67.8412
lradius 36.0189
lwrist -12.7461
lhand -5.894 28.2863
lfingers 7.12502
lthumb 19.9343 57.2839
rfemur -16.9721 8.50974 27.4197
rtibia 31.7916
rfoot -17.4162 -14.2995
rtoes 26.3901
lfemur -14.5221 -9.11063 -16.9973
ltibia 28.5963
lfoot -16.7837 11.35
ltoes 3.33682
2
root 0.0727755 18.2532 -4.0028 5.0959 4.51614 -3.36577
lowerback 2.59855 -2.70027 3.26415
upperback -1.9362 -3.37172 3.06058
thorax -3.45692 -1.71823 1.51683
lowerneck -9.59673 -12.0572 -10.2013
upperneck 13.5167 -14.7812 0.029973
head 6.4456 -7.67176 0.270064
rclavicle -2.14687e-014 -6.75868e-015
rhumerus -32.916 -10.1601 -72.5006
rradius 28.9334
rwrist 1.18949
rhand -19.1367 19.4566
rfingers 7.12502
rthumb 7.17316 -10.4018
lclavicle -2.14687e-014 -6.75868e-015
lhumerus -41.377 21.7767 67.9388
lradius 36.1053
lwrist -12.6932
lhand -5.98035 28.2679
lfingers 7.12502
lthumb 19.8512 57.2741
rfemur -16.9804 8.46007 27.297
rtibia 31.8628
rfoot -17.5092 -14.2534
rtoes 26.5194
lfemur -14.4618 -9.089 -17.1261
ltibia 28.5094
lfoot -16.7655 11.319
ltoes 2.98057
3
root 0.0810163 18.2529 -4.00274 5.0652 4.53137 -3.27919
lowerback 2.61469 -2.73677 3.23001
upperback -1.91415 -3.42281 3.03209
thorax -3.4428 -1.74304 1.5094
lowerneck -9.6994 -12.0081 -10.0833
upperneck 13.5158 -14.7095 -0.0452237
head 6.44392 -7.63637 0.233088
rclavicle -4.17448e-014 4.81059e-014
rhumerus -32.8717 -10.0655 -72.6264
rradius 29.0817
rwrist 1.01445
rhand -19.2432 19.2709
rfingers 7.12502
rthumb 7.0704 -10.591
lclavicle -4.17448e-014 4.81059e-014
lhumerus -41.3157 21.7797 67.9817
lradius 36.0976
lwrist -12.6726
lhand -6.05384 27.8811
lfingers 7.12502
lthumb 19.7806 56.8946
rfemur -16.9655 8.3649 27.1832
rtibia 31.9356
rfoot -17.5192 -14.2596
rtoes 26.0238
lfemur -14.3927 -9.12483 -17.2587
ltibia 28.4737
lfoot -16.772 11.3174
ltoes 2.72927
4
root 0.0872345 18.2513 -4.00437 5.06575 4.51043 -3.25441
lowerback 2.54654 -2.73993 3.21793
upperback -1.84686 -3.43386 3.03794
thorax -3.33351 -1.74739 1.51621
lowerneck -9.81337 -11.9994 -9.98789
upperneck 13.4309 -14.6909 -0.0947462
head 6.42321 -7.62423 0.203467
rclavicle -3.26504e-014 2.46493e-014
rhumerus -32.6998 -10.1541 -72.6911
rradius 29.137
rwrist 0.905563
rhand -19.2713 19.1749
rfingers 7.12502
rthumb 7.04326 -10.6879
lclavicle -3.26504e-014 2.46493e-014
lhumerus -41.0523 21.8819 68.0724
lradius 35.9385
lwrist -12.8111
lhand -6.0664 27.6098
lfingers 7.12502
lthumb 19.7685 56.6245
rfemur -16.9996 8.32854 27.1348
rtibia 32.002
rfoot -17.5397 -14.2488
rtoes 26.0038
lfemur -14.3782 -9.11067 -17.3138
ltibia 28.4552
lfoot -16.675 11.3452
ltoes 2.82918
5
root 0.0860135 18.2512 -4.013 5.29198 4.67486 -3.17204
lowerback 2.38652 -2.80502 3.08552
upperback -1.89747 -3.53196 3.06451
thorax -3.28561 -1.79323 1.61524
lowerneck -9.86996 -11.9701 -9.93555
upperneck 13.3464 -14.6495 -0.110813
head 6.39805 -7.60129 0.1958
rclavicle -2.46493e-014 9.54166e-015
rhumerus -32.5976 -10.2441 -72.7175
rradius 29.1851
rwrist 0.94311
rhand -19.3349 19.1736
rfingers 7.12502
rthumb 6.98185 -10.6912
lclavicle -2.46493e-014 9.54166e-015
lhumerus -40.7982 21.8852 68.1934
lradius 35.8386
lwrist -13.008
lhand -5.86932 27.6773
lfingers 7.12502
lthumb 19.958 56.6724
rfemur -17.3072 8.279 27.0186
rtibia 32.0562
rfoot -17.5738 -14.3135
rtoes 26.3513
lfemur -14.7069 -9.14386 -17.3359
ltibia 28.4701
lfoot -16.6227 11.1467
ltoes 3.2561
6
root 0.0889138 18.2509 -4.01627 5.34971 4.65488 -3.19716
lowerback 2.37866 -2.82023 3.08563
upperback -1.92238 -3.55044 3.10787
thorax -3.30423 -1.80215 1.66139
lowerneck -9.92734 -11.944 -9.92025
upperneck 13.3375 -14.6057 -0.138448
head 6.39946 -7.58086 0.186889
rclavicle -4.77083e-014 2.14687e-014
rhumerus -32.5423 -10.241 -72.7468
rradius 29.211
rwrist 0.992789
rhand -19.3831 19.1908
rfingers 7.12502
rthumb 6.9353 -10.6756
lclavicle -4.77083e-014 2.14687e-014
lhumerus -40.6818 21.8241 68.3193
lradius 35.8269
lwrist -13.0783
lhand -5.62325 27.9953
lfingers 7.12502
lthumb 20.1945 56.9656
rfemur -17.3958 8.35582 27.018
rtibia 32.0839
rfoot -17.6397 -14.3127
rtoes 26.4621
lfemur -14.8164 -9.13673 -17.3084
ltibia 28.5236
lfoot -16.6268 11.126
ltoes 3.291
7
root 0.0936434 18.2496 -4.01758 5.28934 4.48803 -3.27519
lowerback 2.49009 -2.78609 3.14316
upperback -1.92129 -3.49514 3.15741
thorax -3.36679 -1.77547 1.6839
lowerneck -10.0307 -11.9278 -9.88566
upperneck 13.4047 -14.5615 -0.243868
head 6.42578 -7.56597 0.14609
rclavicle -3.68e-014 2.06736e-014
rhumerus -32.5176 -10.2241 -72.7716
rradius 29.2989
rwrist 0.986837
rhand -19.3123 19.0946
rfingers 7.12502
rthumb 7.00367 -10.7696
lclavicle -3.68e-014 2.06736e-014
lhumerus -40.5803 21.7447 68.4725
lradius 35.7608
lwrist -13.0786
lhand -5.60256 28.2987
lfingers 7.12502
lthumb 20.2144 57.2669
rfemur -17.349 8.46489 27.0815
rtibia 32.1065
rfoot -17.6197 -14.2575
rtoes 26.3903
lfemur -14.7633 -9.09826 -17.2669
ltibia 28.5911
lfoot -16.6489 11.2642
ltoes 3.23448
8
root 0.0964831 18.2481 -4.02011 5.21569 4.37558 -3.34877
lowerback 2.57633 -2.75421 3.1504
upperback -1.88753 -3.44706 3.22379
thorax -3.37715 -1.75073 1.7491
lowerneck -10.1045 -11.9381 -9.89335
upperneck 13.4131 -14.5567 -0.302021
head 6.43682 -7.56776 0.124996
rclavicle 5.49143e-015 -1.66979e-014
rhumerus -32.392 -10.2326 -72.7824
rradius 29.3294
rwrist 1.05989
rhand -19.3246 18.9429
rfingers 7.12502
rthumb 6.99184 -10.9216
lclavicle 5.49143e-015 -1.66979e-014
lhumerus -40.4573 21.6628 68.7005
lradius 35.8149
lwrist -13.0602
lhand -5.62499 28.2098
lfingers 7.12502
lthumb 20.1928 57.1803
rfemur -17.2995 8.52264 27.1555
rtibia 32.1258
rfoot -17.608 -14.2093
rtoes 26.398
lfemur -14.7026 -9.03201 -17.2188
ltibia 28.6381
lfoot -16.6734 11.2574
ltoes 3.34136
9
root 0.101158 18.2461 -4.02483 5.1898 4.34751 -3.33867
lowerback 2.61277 -2.76244 3.12859
upperback -1.85063 -3.45788 3.24682
thorax -3.35671 -1.75511 1.7861
lowerneck -10.2012 -11.9296 -9.89846
upperneck 13.4057 -14.5397 -0.258298
head 6.45342 -7.55544 0.134981
rclavicle 1.0312e-014 6.36111e-015
rhumerus -32.2303 -10.1264 -72.8765
rradius 29.3056
rwrist 0.969752
rhand -19.386 19.0599
rfingers 7.12502
rthumb 6.93252 -10.8066
lclavicle 1.0312e-014 6.36111e-015
lhumerus -40.353 21.6009 68.8652
lradius 35.9078
lwrist -13.0387
lhand -5.574 27.8001
lfingers 7.12502
lthumb 20.2418 56.7654
rfemur -17.3066 8.56267 27.1302
rtibia 32.1424
rfoot -17.5608 -14.2577
rtoes 26.2771
lfemur -14.711 -8.97761 -17.2508
ltibia 28.6804
lfoot -16.6947 11.1941
ltoes 3.40262
10
root 0.108552 18.2457 -4.02432 5.10375 4.23837 -3.23584
lowerback 2.6293 -2.74766 3.07129
upperback -1.77755 -3.44371 3.21521
thorax -3.28882 -1.74658 1.78244
lowerneck -10.1914 -11.896 -9.93097
upperneck 13.269 -14.5071 -0.139046
head 6.41752 -7.53029 0.184838
rclavicle -1.47349e-014 1.27222e-014
rhumerus -32.1664 -10.0138 -73.0004
rradius 29.36
rwrist 0.806256
rhand -19.4526 19.225
rfingers 7.12502
rthumb 6.86827 -10.6436
lclavicle -1.47349e-014 1.27222e-014
lhumerus -40.216 21.54 69.0192
lradius 35.8986
lwrist -13.0253
lhand -5.62162 27.4581
lfingers 7.12502
lthumb 20.1961 56.4283
rfemur -17.2236 8.53811 27.0063
rtibia 32.1688
rfoot -17.5044 -14.233
rtoes 25.9466
lfemur -14.5944 -8.97683 -17.4226
ltibia 28.7231
lfoot -16.7249 11.3435
ltoes 3.23112
11
root 0.112822 18.2435 -4.02447 5.00713 4.11963 -3.27323
lowerback 2.68987 -2.70797 3.11964
upperback -1.72591 -3.38727 3.2252
thorax -3.27219 -1.71906 1.76409
lowerneck -10.0737 -11.8843 -9.97224
upperneck 13.0416 -14.5148 -0.019496
head 6.33696 -7.52473 0.241597
rclavicle 1.82633e-014 -9.54166e-015
rhumerus -32.1499 -9.83318 -73.129
rradius 29.4456
rwrist 0.598615
rhand -19.4664 19.1611
rfingers 7.12502
rthumb 6.85498 -10.7079
lclavicle 1.82633e-014 -9.54166e-015
lhumerus -40.0959 21.3335 69.2534
lradius 35.9941
lwrist -12.8001
lhand -5.70471 27.7069
lfingers 7.12502
lthumb 20.1162 56.6854
rfemur -17.1377 8.6058 27.0369
rtibia 32.1907
rfoot -17.4962 -14.1579
rtoes 26.3063
lfemur -14.4946 -8.9451 -17.4256
ltibia 28.765
lfoot -16.7573 11.4553
ltoes 3.08664
12
root 0.114027 18.2411 -4.02855 4.9998 4.02032 -3.3587
lowerback 2.71413 -2.66581 3.17705
upperback -1.71811 -3.32646 3.26286
thorax -3.27936 -1.68955 1.76865
lowerneck -10.0595 -11.8773 -9.95709
upperneck 12.9706 -14.5092 -0.0171532
head 6.31043 -7.52027 0.244435
rclavicle 5.04416e-014 -1.51076e-014
rhumerus -32.1266 -9.82527 -73.1793
rradius 29.4874
rwrist 0.516882
rhand -19.3511 19.0321
rfingers 7.12502
rthumb 6.96623 -10.8333
lclavicle 5.04416e-014 -1.51076e-014
lhumerus -40.0316 21.1363 69.478
lradius 36.1621
lwrist -12.7004
lhand -5.60852 28.0339
lfingers 7.12502
lthumb 20.2086 57.0027
rfemur -17.1688 8.76058 27.1118
rtibia 32.2144
rfoot -17.4536 -14.1136
rtoes 26.8954
lfemur -14.5169 -8.90206 -17.3411
ltibia 28.7861
lfoot -16.7675 11.4854
ltoes 3.38099
13
root 0.118848 18.2407 -4.0311 4.94233 3.93007 -3.40416
lowerback 2.71505 -2.6335 3.24027
upperback -1.64893 -3.28305 3.28061
thorax -3.21117 -1.66845 1.74676
lowerneck -10.13 -11.8667 -10.0016
upperneck 12.9329 -14.4925 0.0732867
head 6.31936 -7.50618 0.276568
rclavicle 3.61291e-014 -3.02153e-014
rhumerus -32.0125 -9.91206 -73.2116
rradius 29.4916
rwrist 0.537148
rhand -19.1534 18.8617
rfingers 7.12502
rthumb 7.15709 -10.9973
lclavicle 3.61291e-014 -3.02153e-014
lhumerus -39.902 21.0841 69.673
lradius 36.2897
lwrist -12.7158
lhand -5.64058 28.1744
lfingers 7.12502
lthumb 20.1778 57.1464
rfemur -17.1318 8.80226 27.1349
rtibia 32.2315
rfoot -17.4802 -13.9724
rtoes 27.531
lfemur -14.4609 -8.8465 -17.3269
ltibia 28.8073
lfoot -16.7248 11.516
ltoes 3.25795
14
root 0.126169 18.2413 -4.03175 4.88299 3.92749 -3.36465
lowerback 2.66384 -2.63359 3.26328
upperback -1.55932 -3.28943 3.26443
thorax -3.0918 -1.6713 1.71144
lowerneck -10.1812 -11.8432 -9.98775
upperneck 12.8469 -14.4681 0.153674
head 6.30385 -7.48601 0.301749
rclavicle 2.18166e-014 -3.97569e-015
rhumerus -31.8449 -9.85175 -73.3052
rradius 29.4736
rwrist 0.598958
rhand -19.1933 18.7757
rfingers 7.12502
rthumb 7.11855 -11.0846
lclavicle 2.18166e-014 -3.97569e-015
lhumerus -39.6915 21.0196 69.8508
lradius 36.3126
lwrist -12.7785
lhand -5.70147 27.9857
lfingers 7.12502
lthumb 20.1193 56.9639
rfemur -17.0744 8.69655 27.0747
rtibia 32.2537
rfoot -17.56 -13.9331
rtoes 27.1778
lfemur -14.3937 -8.82779 -17.4113
ltibia 28.8245
lfoot -16.6981 11.5318
ltoes 3.26597
15
root 0.131176 18.2415 -4.03114 4.8316 3.93671 -3.34947
lowerback 2.69547 -2.64101 3.26714
upperback -1.54289 -3.29792 3.27004
thorax -3.09252 -1.67544 1.71663
lowerneck -10.1621 -11.8095 -9.96846
upperneck 12.7953 -14.435 0.203553
head 6.2847 -7.46502 0.321005
rclavicle 2.06239e-014 -3.18055e-015
rhumerus -31.7851 -9.80383 -73.3759
rradius 29.4384
rwrist 0.749125
rhand -19.2396 18.877
rfingers 7.12502
rthumb 7.07387 -10.9848
lclavicle 2.06239e-014 -3.18055e-015
lhumerus -39.6546 20.8651 70.0376
lradius 36.4339
lwrist -12.7939
lhand -5.75685 27.8015
lfingers 7.12502
lthumb 20.0661 56.7853
rfemur -17.0193 8.59357 27.0601
rtibia 32.2838
rfoot -17.6082 -13.9359
rtoes 26.5438
lfemur -14.3308 -8.7597 -17.4518
ltibia 28.8163
lfoot -16.6726 11.4668
ltoes 3.23139
